<?xml version="1.0" standalone="no"?>
<!DOCTYPE svg PUBLIC "-//W3C//DTD SVG 20010904//EN"
 "http://www.w3.org/TR/2001/REC-SVG-20010904/DTD/svg10.dtd">
<svg version="1.0" xmlns="http://www.w3.org/2000/svg"
 width="700.000000pt" height="700.000000pt" viewBox="0 0 700.000000 700.000000"
 preserveAspectRatio="xMidYMid meet">
<metadata>
Created by potrace 1.14, written by Peter Selinger 2001-2017
</metadata>
<g transform="translate(0.000000,700.000000) scale(0.100000,-0.100000)"
fill="#000000" stroke="none">
<path d="M3375 5926 c17 -8 55 -22 85 -31 72 -22 166 -67 227 -107 44 -30 188
-166 223 -213 20 -26 112 -182 127 -215 99 -216 145 -379 178 -625 13 -98 13
-480 0 -570 -3 -22 -10 -78 -16 -125 -71 -565 -287 -1165 -587 -1630 -36 -56
-155 -220 -190 -262 -126 -150 -215 -244 -349 -368 -183 -170 -369 -283 -587
-355 -200 -67 -365 -83 -535 -50 -46 9 -85 15 -87 13 -2 -2 27 -24 64 -48 175
-114 372 -170 581 -165 279 8 608 137 876 344 105 81 127 101 299 275 93 94
171 166 173 160 4 -13 67 -98 116 -159 17 -22 143 -150 280 -286 213 -212 247
-242 248 -220 4 135 88 298 206 400 84 74 238 137 346 143 l38 2 -138 134
c-76 74 -215 210 -309 303 -185 182 -229 212 -332 223 -62 7 -96 23 -136 65
-35 36 -32 44 13 31 18 -5 39 -6 47 -3 48 18 262 559 330 833 17 69 64 312 69
353 3 29 7 63 10 76 23 122 24 587 1 731 -3 14 -10 59 -16 100 -94 596 -426
1053 -875 1205 -90 30 -178 45 -295 50 -105 5 -112 4 -85 -9z"/>
<path d="M3095 5829 c-107 -16 -133 -22 -210 -46 -232 -73 -443 -207 -660
-420 -107 -105 -127 -127 -241 -264 -59 -70 -80 -89 -102 -90 -15 -1 -276 -2
-580 -3 l-554 -1 -151 -156 c-144 -147 -381 -396 -447 -470 -17 -19 -35 -44
-41 -57 -12 -31 -12 -2252 1 -2272 8 -13 87 -15 602 -16 377 -1 602 -5 619
-12 16 -7 42 -39 73 -94 27 -45 69 -113 93 -151 99 -147 278 -270 455 -314 42
-10 262 -12 308 -3 25 5 56 12 70 15 78 16 210 67 320 122 68 35 127 67 130
71 3 4 25 20 50 36 248 159 561 516 791 904 217 365 385 817 454 1222 9 52 18
106 20 120 3 14 7 50 11 80 3 30 8 64 10 75 6 32 18 234 18 315 2 541 -174
1018 -463 1250 -157 126 -384 189 -576 159z m265 -258 c84 -26 149 -68 225
-145 157 -158 244 -362 299 -701 17 -100 22 -378 11 -536 -7 -96 -10 -127 -31
-259 -21 -136 -24 -151 -34 -190 -5 -19 -11 -46 -14 -60 -8 -41 -45 -168 -82
-285 -156 -483 -402 -900 -743 -1257 -464 -488 -978 -601 -1271 -281 -28 30
-64 74 -79 97 -24 35 -27 45 -18 61 15 25 34 29 55 13 9 -7 13 -8 10 -2 -7 10
101 14 502 18 l135 1 23 59 c13 33 26 74 29 93 6 33 5 33 -33 34 -22 0 -484 2
-1029 3 -545 2 -995 4 -1002 4 -6 1 -15 12 -19 24 -4 12 -7 458 -7 991 1 838
3 971 15 983 12 13 58 15 266 14 231 0 252 1 260 17 5 10 9 130 10 268 1 237
2 251 21 266 18 15 124 16 1158 17 1352 1 1225 -1 1246 15 10 7 29 42 42 79
22 60 23 68 8 80 -13 10 -119 13 -542 14 -576 1 -544 -3 -496 59 105 135 342
327 512 414 221 114 410 144 573 92z m-1904 -3543 c3 -4 -1 -5 -10 -4 -8 1
-18 5 -22 8 -3 4 1 5 10 4 8 -1 18 -5 22 -8z m39 2 c3 -6 -1 -7 -9 -4 -18 7
-21 14 -7 14 6 0 13 -4 16 -10z m65 6 c0 -7 -40 -14 -44 -7 -3 4 6 8 20 9 13
1 24 0 24 -2z m57 -2 c-3 -3 -12 -4 -19 -1 -8 3 -5 6 6 6 11 1 17 -2 13 -5z"/>
<path d="M1170 4358 c-82 -14 -127 -68 -117 -141 6 -47 37 -82 86 -99 56 -19
1503 -18 1549 1 60 25 90 94 69 156 -13 37 -23 47 -67 70 -33 17 -84 18 -757
19 -397 1 -740 -2 -763 -6z"/>
<path d="M1113 3633 c-21 -11 -38 -30 -48 -55 -21 -53 -19 -86 7 -124 46 -67
11 -64 826 -64 472 0 750 4 774 10 79 22 113 114 68 187 -40 66 0 63 -837 62
-670 0 -762 -2 -790 -16z"/>
<path d="M1122 2920 c-51 -23 -75 -59 -74 -111 1 -49 21 -83 65 -106 29 -16
93 -17 793 -17 707 -1 762 1 787 17 86 56 80 172 -11 218 -27 14 -114 16 -776
16 -694 0 -747 -1 -784 -17z"/>
<path d="M4966 5029 c-78 -21 -113 -105 -75 -185 32 -67 58 -74 285 -74 241 0
264 7 297 91 21 53 5 112 -40 146 l-36 28 -201 0 c-111 1 -214 -2 -230 -6z"/>
<path d="M5055 4400 c-99 -10 -152 -83 -124 -171 17 -50 51 -78 109 -89 23 -4
355 -8 738 -9 612 0 698 1 721 15 92 55 91 188 -2 237 -33 17 -74 18 -714 20
-373 1 -701 0 -728 -3z"/>
<path d="M6391 3652 c-59 -9 -101 -62 -101 -129 0 -50 18 -82 59 -110 33 -22
42 -23 237 -23 119 0 214 4 231 11 99 37 111 180 20 234 -28 17 -54 19 -227
19 -107 1 -206 -1 -219 -2z"/>
<path d="M4952 3630 c-63 -28 -92 -104 -69 -175 4 -11 23 -31 44 -45 l36 -25
491 0 c470 0 492 1 520 20 82 55 73 186 -16 228 -28 13 -98 15 -499 15 -429 0
-470 -2 -507 -18z"/>
<path d="M4798 2896 c-36 -13 -76 -49 -78 -71 -1 -5 -3 -18 -5 -28 -9 -48 35
-122 85 -143 17 -7 240 -10 690 -10 l665 1 31 22 c36 25 65 79 59 108 -2 11
-4 28 -4 38 -1 9 -16 34 -35 55 l-34 37 -669 2 c-539 2 -675 0 -705 -11z"/>
<path d="M4916 1746 c-199 -67 -362 -285 -350 -469 5 -80 55 -156 128 -194
101 -53 289 9 416 137 122 123 184 297 144 405 -13 35 -63 93 -101 116 -51 32
-151 34 -237 5z"/>
</g>
</svg>
